<?xml version="1.0" encoding="UTF-8" standalone="no"?>
<!-- Created with Inkscape (http://www.inkscape.org/) -->

<svg
   width="80mm"
   height="80mm"
   viewBox="0 0 80 80"
   version="1.1"
   id="svg5"
   inkscape:version="1.1.1 (3bf5ae0d25, 2021-09-20)"
   sodipodi:docname="logo.svg"
   xmlns:inkscape="http://www.inkscape.org/namespaces/inkscape"
   xmlns:sodipodi="http://sodipodi.sourceforge.net/DTD/sodipodi-0.dtd"
   xmlns="http://www.w3.org/2000/svg"
   xmlns:svg="http://www.w3.org/2000/svg">
  <sodipodi:namedview
     id="namedview7"
     pagecolor="#ffffff"
     bordercolor="#666666"
     borderopacity="1.0"
     inkscape:pageshadow="2"
     inkscape:pageopacity="0.0"
     inkscape:pagecheckerboard="0"
     inkscape:document-units="mm"
     showgrid="false"
     inkscape:snap-text-baseline="true"
     inkscape:snap-global="true"
     inkscape:zoom="1"
     inkscape:cx="7"
     inkscape:cy="281"
     inkscape:window-width="1680"
     inkscape:window-height="981"
     inkscape:window-x="0"
     inkscape:window-y="32"
     inkscape:window-maximized="1"
     inkscape:current-layer="layer1"
     width="80mm" />
  <defs
     id="defs2" />
  <g
     inkscape:label="Ebene 1"
     inkscape:groupmode="layer"
     id="layer1">
    <g
       id="g4286"
       transform="matrix(1.0439972,0,0,1.0439972,1.0030113,-118.99751)"
       style="stroke-width:0.957857">
      <rect
         style="fill:#ffffff;fill-opacity:1;stroke:none;stroke-width:0.478926;stroke-miterlimit:4;stroke-dasharray:none"
         id="rect21505"
         width="76.628555"
         height="76.628555"
         x="-0.96073997"
         y="113.9826"
         inkscape:export-filename="/home/denis/g21747.png"
         inkscape:export-xdpi="1297.83"
         inkscape:export-ydpi="1297.83" />
      <g
         id="g4280"
         transform="matrix(4.2658636,0,0,4.2658636,-121.99154,-497.38093)"
         style="stroke-width:0.22454">
        <path
           id="path20889"
           style="color:#000000;fill:#34af57;stroke-width:0.848656;-inkscape-stroke:none"
           d="m 112.83203,547.26367 v 1.89063 54.80273 h 36.08594 v -3.7793 h -32.30664 v -49.13476 h 49.13476 v 17.43164 h 3.7793 v -21.21094 z m 7.24219,6.36328 -0.70899,1.04883 3.41797,2.31055 -3.41015,2.21484 0.69336,1.07031 5.01171,-3.25586 z M 125.07812,559 v 1.27148 h 4.88672 V 559 Z m 40.66797,10.74414 v 30.43359 h -15.55664 v 3.7793 h 19.33594 v -34.21289 z"
           transform="scale(0.26458333)" />
        <path
           id="path4172"
           style="font-size:10.5833px;line-height:1.25;font-family:FreeSerif;-inkscape-font-specification:FreeSerif;stroke-width:0.22454"
           d="m 144.75781,569.74414 c -2.50666,0 -4.29271,0.8128 -5.35937,2.43945 -1.06666,1.6 -1.62635,3.8942 -1.67969,6.88086 h -3.28125 v 1.2793 h 3.28125 v 12.56055 c 0,1.46666 -0.19961,2.41318 -0.59961,2.83984 -0.37333,0.40013 -1.28071,0.64083 -2.7207,0.7207 v 0.59961 h 10.40039 v -0.59961 c -1.62666,-0.0533 -2.65341,-0.28166 -3.08008,-0.68164 -0.42667,-0.42668 -0.64063,-1.38559 -0.64063,-2.8789 v -12.56055 h 4.88086 v -1.2793 h -4.91992 v -4.64062 c 0,-2.37332 0.7593,-3.56055 2.2793,-3.56055 0.50667,0 0.93263,0.16047 1.2793,0.48047 0.37333,0.29334 0.64078,0.64104 0.80078,1.04102 0.18666,0.37334 0.42542,0.71906 0.71875,1.03906 0.32,0.29334 0.69443,0.43945 1.12109,0.43945 0.45333,0 0.84016,-0.15851 1.16016,-0.47851 0.34666,-0.32 0.51953,-0.70682 0.51953,-1.16016 0,-0.72 -0.39922,-1.30645 -1.19922,-1.75977 -0.77333,-0.48 -1.76094,-0.7207 -2.96094,-0.7207 z m -18.19922,8.96094 c -1.57333,0 -2.87992,0.46707 -3.91992,1.40039 -1.01333,0.90666 -1.51953,2.07953 -1.51953,3.51953 0,1.12 0.34573,2.12 1.03906,3 0.72,0.88 1.93397,1.79977 3.64063,2.75977 l 2.32031,1.32031 c 1.38666,0.8 2.08008,1.80002 2.08008,3 0,0.88 -0.30854,1.5858 -0.92188,2.11914 -0.58666,0.50666 -1.3851,0.75976 -2.39843,0.75976 -1.52,0 -2.70722,-0.54535 -3.56055,-1.63867 -0.58667,-0.77334 -1.09287,-2.09428 -1.51953,-3.96093 h -0.64063 v 6.24023 h 0.51953 c 0.21334,-0.32 0.51993,-0.48047 0.91993,-0.48047 0.26666,0 0.96008,0.1195 2.08007,0.35938 1.12,0.23987 2.01303,0.36132 2.67969,0.36132 1.54666,0 2.86761,-0.50816 3.96094,-1.52148 1.12,-1.01334 1.67969,-2.21295 1.67969,-3.59961 0,-0.98666 -0.2655,-1.84055 -0.79883,-2.56055 -0.50667,-0.74666 -1.36055,-1.47922 -2.56055,-2.19922 l -4.32031,-2.56054 c -1.14666,-0.66666 -1.7207,-1.57207 -1.7207,-2.71875 0,-0.8 0.27984,-1.45428 0.83984,-1.96094 0.58666,-0.50666 1.33357,-0.75977 2.24023,-0.75977 1.14667,0 2.05404,0.37444 2.72071,1.1211 0.66666,0.74666 1.22635,2.01217 1.67968,3.79883 h 0.59961 l -0.16015,-5.43946 h -0.43946 c -0.4,0.26666 -0.61396,0.40039 -0.64062,0.40039 -0.16,0 -0.62511,-0.11925 -1.39844,-0.35937 -0.77333,-0.26666 -1.60047,-0.40039 -2.48047,-0.40039 z"
           transform="scale(0.26458333)" />
      </g>
    </g>
  </g>
</svg>
