<?xml version="1.0" encoding="UTF-8"?>
<!-- Created with Inkscape (http://www.inkscape.org/) -->
<svg width="80mm" height="80mm" version="1.1" viewBox="0 0 80 80" xmlns="http://www.w3.org/2000/svg">
 <rect x="1.4612e-6" y="2.4832e-6" width="80" height="80" fill="#fff"/>
 <path d="m6.5981 6.5981v66.804h42.521v-4.4533h-38.068v-57.897h57.897v20.54h4.4533v-24.994zm8.5337 7.4981-0.83543 1.2359 4.0275 2.7226-4.0183 2.6098 0.81701 1.2612 5.9055-3.8365zm5.8963 6.3313v1.4982h5.7582v-1.4982zm47.92 12.66v35.861h-18.331v4.4533h22.784v-40.314z" color="#000000" fill="#34af71" style="-inkscape-stroke:none"/>
 <path d="m44.217 33.088c-2.9537 0-5.0582 0.95775-6.3151 2.8745-1.2569 1.8853-1.9164 4.5887-1.9792 8.108h-3.8664v1.5074h3.8664v14.801c0 1.7282-0.23521 2.8435-0.70654 3.3463-0.43991 0.47149-1.5091 0.75511-3.2059 0.84923v0.70654h12.255v-0.70654c-1.9168-0.0628-3.1266-0.33189-3.6294-0.8032-0.50276-0.50277-0.75488-1.6327-0.75488-3.3923v-14.801h5.7513v-1.5074h-5.7973v-5.4682c0-2.7966 0.89471-4.1955 2.6858-4.1955 0.59703 0 1.099 0.18909 1.5074 0.56616 0.43991 0.34565 0.75505 0.75536 0.94359 1.2267 0.21995 0.43992 0.50129 0.84729 0.84693 1.2244 0.37707 0.34565 0.81827 0.51782 1.321 0.51782 0.53417 0 0.98999-0.18678 1.3671-0.56384 0.40848-0.37707 0.61218-0.83287 0.61218-1.3671 0-0.8484-0.47042-1.5394-1.4131-2.0736-0.91124-0.5656-2.075-0.84923-3.489-0.84923zm-21.445 10.559c-1.8539 0-3.3935 0.55036-4.619 1.6501-1.194 1.0683-1.7905 2.4504-1.7905 4.1472 0 1.3197 0.40739 2.4981 1.2244 3.535 0.8484 1.0369 2.2789 2.1207 4.2899 3.2519l2.7341 1.5558c1.634 0.94267 2.451 2.121 2.451 3.535 0 1.0369-0.36356 1.8686-1.0863 2.4971-0.69128 0.59702-1.6321 0.89525-2.8262 0.89525-1.7911 0-3.19-0.6426-4.1955-1.9309-0.69129-0.91125-1.2878-2.4678-1.7905-4.6673h-0.75488v7.3531h0.61218c0.25139-0.37707 0.61265-0.56616 1.084-0.56616 0.31422 0 1.1313 0.14081 2.451 0.42347 1.3197 0.28265 2.372 0.42576 3.1576 0.42576 1.8225 0 3.379-0.59878 4.6673-1.7928 1.3197-1.1941 1.9792-2.6076 1.9792-4.2415 0-1.1626-0.31285-2.1688-0.94129-3.0172-0.59703-0.87982-1.6032-1.743-3.0172-2.5914l-5.0908-3.0172c-1.3512-0.78555-2.0276-1.8524-2.0276-3.2036 0-0.94267 0.32974-1.7136 0.98961-2.3106 0.69128-0.59702 1.5714-0.89526 2.6397-0.89526 1.3512 0 2.4203 0.44122 3.2059 1.321 0.78555 0.87982 1.4451 2.371 1.9792 4.4763h0.70654l-0.18871-6.4095h-0.51783c-0.47133 0.31422-0.72345 0.47179-0.75486 0.47179-0.18853 0-0.73659-0.14052-1.6478-0.42346-0.91124-0.31422-1.8859-0.47179-2.9228-0.47179z" fill="#1a1a1a" stroke-width=".26458"/>
</svg>
